<svg xmlns="http://www.w3.org/2000/svg">
<symbol id="icon-briefcase" viewBox="0 0 30 23"><path id="jbe1a" d="M30 5.8v14.7c0 1.2-.9 2.1-2.1 2.1H2.1c-1.2 0-2.1-.9-2.1-2.1V5.8c0-1.2.9-2.1 2.1-2.1h7.5V2.4c0-1.3 1-2.4 2.4-2.4h6c1.3 0 2.4 1.1 2.4 2.4v1.3h7.5c1.2 0 2.1.9 2.1 2.1zM10.8 3.7h8.5V2.4c0-.7-.5-1.2-1.2-1.2H12c-.7 0-1.2.5-1.2 1.2v1.3zm18 16.8V5.8c0-.5-.4-.9-.9-.9H2.1c-.5 0-.9.4-.9.9v1.8l9.3 4.5c.4-.9 1.2-1.5 2.2-1.5h4.5c1 0 1.9.6 2.2 1.5l5.3-2.6c.3-.1.7 0 .8.3.1.3 0 .7-.3.8l-5.7 2.8c-.2 1.2-1.2 2-2.4 2h-4.5c-1.2 0-2.2-.8-2.4-2L1.2 9v11.5c0 .5.4.9.9.9h25.8c.5 0 .9-.4.9-.9zm-16.1-6.3h4.5c.7 0 1.2-.5 1.2-1.2s-.5-1.2-1.2-1.2h-4.5c-.7 0-1.2.5-1.2 1.2s.6 1.2 1.2 1.2z"/></symbol>
<symbol id="icon-calendar" viewBox="0 0 26 24"><path id="_x34_trla" d="M21.7 19.8c0-.3.2-.5.5-.5s.5.2.5.5-.2.5-.5.5c-.2 0-.5-.2-.5-.5zm-3.6 0c0-.3.2-.5.5-.5s.5.2.5.5-.2.5-.5.5-.5-.2-.5-.5zm-3.6 0c0-.3.2-.5.5-.5s.5.2.5.5-.2.5-.5.5-.5-.2-.5-.5zm-3.6 0c0-.3.2-.5.5-.5s.5.2.5.5-.2.5-.5.5-.5-.2-.5-.5zm-3.7 0c0-.3.2-.5.5-.5s.5.2.5.5-.2.5-.4.5c-.3 0-.6-.2-.6-.5zm-3.6 0c0-.3.2-.5.5-.5s.5.2.5.5-.2.5-.5.5c-.2 0-.5-.2-.5-.5zm18.1-3.6c0-.3.2-.5.5-.5s.5.2.5.5-.2.5-.5.5c-.2 0-.5-.2-.5-.5zm-3.6 0c0-.3.2-.5.5-.5s.5.2.5.5-.2.5-.5.5-.5-.2-.5-.5zm-3.6 0c0-.3.2-.5.5-.5s.5.2.5.5-.2.5-.5.5-.5-.2-.5-.5zm-3.6 0c0-.3.2-.5.5-.5s.5.2.5.5-.2.5-.5.5-.5-.2-.5-.5zm-3.7 0c0-.3.2-.5.5-.5s.5.2.5.5-.2.5-.4.5c-.3 0-.6-.2-.6-.5zm-3.6 0c0-.3.2-.5.5-.5s.5.2.5.5-.2.5-.5.5c-.2 0-.5-.2-.5-.5zm18.1-4c0-.3.2-.5.5-.5s.5.2.5.5-.2.5-.5.5c-.2 0-.5-.2-.5-.5zm-3.6 0c0-.3.2-.5.5-.5s.5.2.5.5-.2.5-.5.5-.5-.2-.5-.5zm-3.6 0c0-.3.2-.5.5-.5s.5.2.5.5-.2.5-.5.5-.5-.2-.5-.5zm-3.6 0c0-.3.2-.5.5-.5s.5.2.5.5-.2.5-.5.5-.5-.2-.5-.5zM26 2v22H0V2h5.8C6 .8 7.1 0 8.3 0c1.4 0 2.6 1.1 2.6 2.5S9.7 5 8.3 5c-.3 0-.5-.2-.5-.5S8 4 8.3 4c.9 0 1.6-.7 1.6-1.5S9.2 1 8.3 1c-.6 0-1.2.4-1.4 1h.9c.3 0 .5.2.5.5s-.2.5-.5.5H1v4.6h24V3h-4.8c-.2 1.2-1.3 2-2.5 2-.3 0-.5-.2-.5-.5s.2-.5.5-.5c.9 0 1.6-.7 1.6-1.5S18.6 1 17.7 1c-.3 0-.5-.2-.5-.5s.2-.5.5-.5c1.2 0 2.3.9 2.5 2H26zM14 .5c0-.3.3-.5.6-.5 1.4 0 2.6 1.1 2.6 2.5S16 5 14.6 5c-.3 0-.5-.2-.5-.5s.2-.5.5-.5c.9 0 1.6-.7 1.6-1.5S15.5 1 14.6 1c-.3 0-.6-.2-.6-.5zm-3.1 0c0-.3.2-.5.5-.5C12.9 0 14 1.1 14 2.5S12.8 5 11.4 5c-.3 0-.5-.2-.5-.5s.2-.5.5-.5c.9 0 1.6-.7 1.6-1.5S12.3 1 11.4 1c-.2 0-.5-.2-.5-.5zM25 8.6H1V23h24V8.6z"/></symbol>
<symbol id="icon-cart" viewBox="0 0 28 30"><path id="sqvma" d="M24.6 18.1H8c-1 0-1.7-.8-1.7-1.7v-9l20.1 2.8v6.2c-.1.9-.8 1.7-1.8 1.7zm.9 8.5c0 .9-.8 1.7-1.7 1.7s-1.7-.8-1.7-1.7.8-1.7 1.7-1.7 1.7.8 1.7 1.7zm-13.4 0c0 .9-.8 1.7-1.7 1.7-.9 0-1.7-.8-1.7-1.7 0-.9.8-1.7 1.7-1.7 1 0 1.7.8 1.7 1.7zM8 19.8h16.6c1.9 0 3.4-1.5 3.4-3.4v-7h-.1l-21-2.9V2.8v-.1-.2h-.1L1.2.1C.8-.1.3.1.1.5c-.2.4 0 .9.4 1.1l4 1.7v18.2c0 1.7 1.3 3.2 3 3.4-.3.5-.5 1.1-.5 1.7 0 1.9 1.5 3.4 3.4 3.4s3.4-1.5 3.4-3.4c0-.6-.2-1.2-.5-1.7h7.5c-.3.5-.5 1.1-.5 1.7 0 1.9 1.5 3.4 3.4 3.4s3.4-1.5 3.4-3.4-1.5-3.4-3.4-3.4H8c-1 0-1.7-.8-1.7-1.7v-2.3c.5.4 1.1.6 1.7.6z"/></symbol>
<symbol id="icon-check" viewBox="0 0 120 120"><path d="M102.4 17.6C113.8 28.9 120 44 120 60s-6.2 31.1-17.6 42.4S76 120 60 120s-31.1-6.2-42.4-17.6C6.2 91.1 0 76 0 60s6.2-31.1 17.6-42.4C28.9 6.2 44 0 60 0s31.1 6.2 42.4 17.6zM60 113c29.2 0 53-23.8 53-53S89.2 7 60 7 7 30.8 7 60s23.8 53 53 53zm28.7-72.3c1.4 1.4 1.4 3.6 0 5L55.1 79.3c-.7.7-1.6 1-2.5 1s-1.8-.3-2.5-1L31.3 60.4c-1.4-1.4-1.4-3.6 0-5s3.6-1.4 5 0l16.3 16.3 31-31c1.5-1.3 3.7-1.3 5.1 0z"/></symbol>
<symbol id="icon-home" viewBox="0 0 30 30"><path id="kwgla" d="M10 17.5V23h.5c.3 0 .5.2.5.5s-.2.5-.5.5h-6c-.3 0-.5-.2-.5-.5s.2-.5.5-.5H5v-5.5c0-.3.2-.5.5-.5h4c.3 0 .5.2.5.5zM9 21H6v2h3v-2zm0-3H6v2h3v-2zm10.5 10H11v1.5c0 .3-.2.5-.5.5s-.5-.2-.5-.5v-2c0-.3.2-.5.5-.5H12v-9.5c0-.3.2-.5.5-.5h5c.3 0 .5.2.5.5V27h1.5c.3 0 .5.2.5.5s-.2.5-.5.5zM17 22v-4h-4v9h4v-4h-.5c-.3 0-.5-.2-.5-.5s.2-.5.5-.5h.5zm8-4.5V23h.5c.3 0 .5.2.5.5s-.2.5-.5.5h-6c-.3 0-.5-.2-.5-.5s.2-.5.5-.5h.5v-5.5c0-.3.2-.5.5-.5h4c.3 0 .5.2.5.5zM24 21h-3v2h3v-2zm0-3h-3v2h3v-2zm-9-6c-1.1 0-2-.9-2-2s.9-2 2-2 2 .9 2 2-.9 2-2 2zm0-1c.6 0 1-.5 1-1s-.4-.9-1-1c-.6 0-1 .5-1 1 .1.6.5 1 1 1zm15 17c0 1.1-.9 2-2 2H12.5c-.3 0-.5-.2-.5-.5s.2-.5.5-.5h8.6c-.1-.2-.1-.3-.1-.5 0-.7.4-1.2 1-1.4.2-1.2 1.2-2.1 2.5-2.1 1 0 1.8.6 2.2 1.4.1-.1.2-.1.3-.2V18c0-.3.2-.5.5-.5s.5.2.5.5v8c1.1 0 2 .9 2 2zm-1 0c0-.6-.4-1-1-1-.5 0-.9.3-1 .7-.1.3-.4.4-.6.3-.2-.1-.3-.3-.3-.5 0-.8-.7-1.5-1.5-1.5s-1.6.7-1.6 1.5c0 .3-.2.5-.5.5s-.5.2-.5.5.2.5.5.5H28c.6 0 1-.4 1-1zm1-23.5V17c0 .3-.2.5-.5.5-.1 0-.3-.1-.4-.1L15 3.2.9 17.4c-.2.2-.5.2-.7 0-.1-.1-.2-.3-.2-.4V4.5c0-.3.2-.5.5-.5H6V3h-.5c-.3 0-.5-.2-.5-.5v-2c0-.3.2-.5.5-.5h4c.3 0 .5.2.5.5v2c0 .3-.2.5-.5.5H9v1h1c.3 0 .5.2.5.5s-.2.5-.5.5H8.5c-.3 0-.5-.2-.5-.5v-2c0-.3.2-.5.5-.5H9V1H6v1h.5c.3 0 .5.2.5.5v2c0 .3-.2.5-.5.5H1v10.8L14.6 2.1c.2-.2.5-.2.7 0L29 15.8V5h-9c-.3 0-.5-.2-.5-.5s.2-.5.5-.5h9.5c.3 0 .5.2.5.5zm-21 24c0 .8-.7 1.5-1.5 1.5H2c-1.1 0-2-.9-2-2s.9-2 2-2v-8c0-.3.2-.5.5-.5s.5.2.5.5v8.2c.1 0 .2.1.3.2.4-.9 1.2-1.4 2.2-1.4 1.2 0 2.3.9 2.5 2.1.6.2 1 .8 1 1.4zm-1 0c0-.3-.2-.5-.5-.5s-.5-.2-.5-.5c0-.8-.7-1.5-1.5-1.5S4 26.7 4 27.5c0 .3-.2.5-.5.5-.2 0-.4-.1-.5-.3-.1-.4-.5-.7-1-.7-.6 0-1 .5-1 1s.4.9 1 1h5.5c.3 0 .5-.2.5-.5z"/></symbol>
<symbol id="icon-store" viewBox="0 0 30 25"><path id="yrh3a" d="M17.8 12.7v8.9c0 .2-.2.4-.4.4H4.7c-.2 0-.4-.2-.4-.4v-8.9c0-.2.2-.4.4-.4h12.7c.2-.1.4.1.4.4zm-.9.4H5.1v8h11.8v-8zm12.2 10.8c0 .2-.2.4-.4.4H1.4c-.2 0-.4-.2-.4-.4s.2-.4.4-.4h.5v-13C.7 9.7 0 8.4 0 7c0-.1 0-.2.1-.2L3.6.7c.2-.4.6-.7 1.1-.7h20.5c.5 0 1 .3 1.2.7l3.5 6.1c.1.1.1.1.1.2 0 1.4-.8 2.7-1.9 3.4v13h.5c.3.1.5.3.5.5zm-25-13.7C5.7 10.2 7 9 7.2 7.5h-3c-.2 0-.4-.2-.4-.5s.2-.4.4-.4h21.6c.2 0 .4.2.4.4s-.2.5-.4.5h-3.1c.2 1.6 1.6 2.8 3.2 2.8s2.9-1.2 3.2-2.8h-1.4c-.2 0-.4-.2-.4-.4s.2-.4.4-.4h1.1l-3.1-5.4c-.1-.2-.3-.3-.4-.3H4.7c-.1-.1-.3 0-.4.1L1.2 6.6h1.1c.2 0 .4.2.4.5 0 .2-.2.4-.4.4H.9c.2 1.5 1.6 2.7 3.2 2.7zm11.4-2.7c.2 1.6 1.6 2.8 3.2 2.8s2.9-1.2 3.2-2.8h-6.4zm-7.3 0c.2 1.6 1.6 2.8 3.2 2.8s2.9-1.2 3.2-2.8H8.2zM24.9 22h-4.8v1.5h4.8V22zm0-8.9h-4.8v8h4.8v-8zm2.3-2.2c-1.9.7-4-.2-5-2-.7 1.4-2.1 2.2-3.6 2.2s-2.9-.9-3.6-2.2c-.7 1.4-2.1 2.2-3.6 2.2s-2.9-.9-3.6-2.2c-.9 1.8-3 2.7-5 2v12.6h16.5V12.7c0-.2.2-.4.4-.4h5.6c.2 0 .4.2.4.4v10.8h1.5V10.9z"/></symbol>
<symbol id="icon-truck" viewBox="0 0 30 22"><path id="e89ia" d="M0 0h1v1H0V0zm2 0h7v1H2V0zm21.5 18h1v1h-1v-1zm-17 0h1v1h-1v-1zM22 12h6.3L26 8.5h-4V12zm2 3.5c1.5 0 2.7 1.1 3 2.5h2v-1h-1.5v-1H29v-2.9l-.1-.1h-7.4c-.3 0-.5-.2-.5-.5V8c0-.3.2-.5.5-.5h3.9l-.6-1H20V18h1c.3-1.4 1.5-2.5 3-2.5zm2 3c0-1.1-.9-2-2-2s-2 .9-2 2 .9 2 2 2 2-.9 2-2zm-19-3c1.5 0 2.7 1.1 3 2.5h9v-1h-8.5v-1H19V5H2V4h17V3H1v13h2.5v1H1v1h3c.3-1.4 1.5-2.5 3-2.5zm0 6c-1.5 0-2.7-1.1-3-2.5H.5c-.3 0-.5-.2-.5-.5v-16c0-.2.2-.5.5-.5h19c.3 0 .5.3.5.5v3h5c.2 0 .3.1.4.2l4.5 7c.1.1.1.2.1.3v5.5c0 .3-.2.5-.5.5H27c-.2 1.4-1.5 2.5-3 2.5s-2.7-1.1-3-2.5H10c-.3 1.5-1.5 2.5-3 2.5zm2-3c0-1.1-.9-2-2-2s-2 .9-2 2 .9 2 2 2 2-.9 2-2z"/></symbol>
</svg>