<svg xmlns="http://www.w3.org/2000/svg" xmlns:xlink="http://www.w3.org/1999/xlink" width="40" height="40"><defs><path id="a" d="M64.881 32.539h8.208v3.126H64.88zm24.992-5.002a6.417 6.417 0 0 0-6.41-6.41 6.417 6.417 0 0 0-6.409 6.41v.502c0 1.84 1.248 4.267 3.61 7.018a35.95 35.95 0 0 0 2.804 2.901c2.414-2.227 6.405-6.605 6.405-9.919zm-8.04 25.794V40.707a39.152 39.152 0 0 1-3.55-3.614c-2.405-2.803-3.824-5.379-4.235-7.68H57.689c-.861 0-1.562.7-1.562 1.562v22.356c0 .862.7 1.563 1.562 1.563H80.27c.862 0 1.563-.701 1.563-1.563zM93 27.537v.502c0 2.635-1.468 5.68-4.364 9.054a39.115 39.115 0 0 1-3.666 3.716V53.33a4.695 4.695 0 0 1-4.69 4.69H57.69A4.695 4.695 0 0 1 53 53.33V30.975a4.695 4.695 0 0 1 4.69-4.69h16.32C74.624 21.617 78.63 18 83.464 18 88.722 18 93 22.278 93 27.537zm-6.868-.006a2.653 2.653 0 1 1-5.305 0 2.653 2.653 0 0 1 5.305 0z"/></defs><use fill="#fff" xlink:href="#a" transform="translate(-53 -18)"/></svg>